<svg width="143" height="27" viewBox="0 0 143 27" fill="none" xmlns="http://www.w3.org/2000/svg">
<path d="M4.03804 3.2661V11.9241H14.406V15.0381H4.03804V26.0001H0.186035V0.1521H16.206V3.2661H4.03804Z" fill="#263238"/>
<path d="M27.1183 17.8821C25.6903 17.9301 24.4783 18.0441 23.4823 18.2241C22.4863 18.3921 21.6763 18.6201 21.0523 18.9081C20.4283 19.1961 19.9783 19.5381 19.7023 19.9341C19.4263 20.3181 19.2883 20.7501 19.2883 21.2301C19.2883 21.6861 19.3603 22.0821 19.5043 22.4181C19.6603 22.7421 19.8643 23.0121 20.1163 23.2281C20.3803 23.4321 20.6863 23.5821 21.0343 23.6781C21.3823 23.7741 21.7603 23.8221 22.1683 23.8221C22.7083 23.8221 23.2003 23.7681 23.6443 23.6601C24.1003 23.5521 24.5263 23.4021 24.9223 23.2101C25.3183 23.0061 25.6963 22.7601 26.0563 22.4721C26.4163 22.1841 26.7703 21.8541 27.1183 21.4821V17.8821ZM16.8223 10.2681C17.8423 9.2961 18.9463 8.5701 20.1343 8.0901C21.3343 7.6101 22.6483 7.3701 24.0763 7.3701C25.1203 7.3701 26.0443 7.5441 26.8483 7.8921C27.6523 8.2281 28.3303 8.7021 28.8823 9.3141C29.4343 9.9261 29.8483 10.6581 30.1243 11.5101C30.4123 12.3621 30.5563 13.3041 30.5563 14.3361V26.0001H28.9903C28.6423 26.0001 28.3783 25.9461 28.1983 25.8381C28.0183 25.7181 27.8743 25.5021 27.7663 25.1901L27.3883 23.5881C26.9203 24.0201 26.4583 24.4041 26.0023 24.7401C25.5463 25.0641 25.0663 25.3461 24.5623 25.5861C24.0703 25.8141 23.5423 25.9881 22.9783 26.1081C22.4143 26.2281 21.7903 26.2881 21.1063 26.2881C20.3863 26.2881 19.7083 26.1921 19.0723 26.0001C18.4483 25.7961 17.9023 25.4901 17.4343 25.0821C16.9663 24.6741 16.5943 24.1641 16.3183 23.5521C16.0543 22.9401 15.9223 22.2261 15.9223 21.4101C15.9223 20.6901 16.1143 20.0001 16.4983 19.3401C16.8943 18.6681 17.5303 18.0681 18.4063 17.5401C19.2943 17.0121 20.4463 16.5801 21.8623 16.2441C23.2903 15.9081 25.0423 15.7161 27.1183 15.6681V14.3361C27.1183 12.9561 26.8243 11.9241 26.2363 11.2401C25.6483 10.5561 24.7843 10.2141 23.6443 10.2141C22.8763 10.2141 22.2283 10.3101 21.7003 10.5021C21.1843 10.6941 20.7343 10.9101 20.3503 11.1501C19.9783 11.3781 19.6483 11.5881 19.3603 11.7801C19.0843 11.9721 18.7963 12.0681 18.4963 12.0681C18.2563 12.0681 18.0463 12.0021 17.8663 11.8701C17.6983 11.7381 17.5603 11.5821 17.4523 11.4021L16.8223 10.2681Z" fill="#263238"/>
<path d="M38.5671 11.2221C39.1551 10.0221 39.8631 9.0801 40.6911 8.3961C41.5191 7.7121 42.5151 7.3701 43.6791 7.3701C44.0751 7.3701 44.4471 7.4181 44.7951 7.5141C45.1551 7.5981 45.4671 7.7301 45.7311 7.9101L45.4971 10.5561C45.4131 10.8801 45.2151 11.0421 44.9031 11.0421C44.7351 11.0421 44.4831 11.0121 44.1471 10.9521C43.8111 10.8801 43.4511 10.8441 43.0671 10.8441C42.5031 10.8441 42.0051 10.9281 41.5731 11.0961C41.1411 11.2521 40.7511 11.4921 40.4031 11.8161C40.0671 12.1281 39.7671 12.5181 39.5031 12.9861C39.2391 13.4421 38.9931 13.9641 38.7651 14.5521V26.0001H35.2551V7.7121H37.2711C37.6551 7.7121 37.9131 7.7841 38.0451 7.9281C38.1891 8.0601 38.2911 8.3001 38.3511 8.6481L38.5671 11.2221Z" fill="#263238"/>
<path d="M48.4387 26.0001V7.7121H50.5447C51.0367 7.7121 51.3427 7.9461 51.4627 8.4141L51.7147 10.1601C52.3867 9.3561 53.1307 8.7021 53.9467 8.1981C54.7747 7.6821 55.7407 7.4241 56.8447 7.4241C58.0567 7.4241 59.0407 7.7601 59.7967 8.4321C60.5527 9.0921 61.1047 9.9921 61.4527 11.1321C61.7167 10.4841 62.0587 9.9261 62.4787 9.4581C62.8987 8.9901 63.3667 8.6061 63.8827 8.3061C64.3987 8.0061 64.9447 7.7841 65.5207 7.6401C66.1087 7.4961 66.7027 7.4241 67.3027 7.4241C68.2747 7.4241 69.1387 7.5801 69.8947 7.8921C70.6627 8.1921 71.3107 8.6361 71.8387 9.2241C72.3667 9.8121 72.7687 10.5381 73.0447 11.4021C73.3207 12.2661 73.4587 13.2501 73.4587 14.3541V26.0001H69.9307V14.3541C69.9307 12.9861 69.6307 11.9541 69.0307 11.2581C68.4427 10.5621 67.5787 10.2141 66.4387 10.2141C65.9347 10.2141 65.4547 10.3041 64.9987 10.4841C64.5427 10.6521 64.1407 10.9101 63.7927 11.2581C63.4567 11.6061 63.1867 12.0381 62.9827 12.5541C62.7907 13.0701 62.6947 13.6701 62.6947 14.3541V26.0001H59.1667V14.3541C59.1667 12.9381 58.8847 11.8941 58.3207 11.2221C57.7567 10.5501 56.9287 10.2141 55.8367 10.2141C55.0807 10.2141 54.3787 10.4121 53.7307 10.8081C53.0827 11.2041 52.4887 11.7441 51.9487 12.4281V26.0001H48.4387Z" fill="#263238"/>
<path d="M97.8223 0.1521L87.3103 26.0001H83.8723L73.3603 0.1521H76.4203C76.7563 0.1521 77.0263 0.2361 77.2303 0.4041C77.4463 0.5721 77.6083 0.788099 77.7163 1.0521L84.7003 18.6201C84.8683 19.0521 85.0303 19.5261 85.1863 20.0421C85.3543 20.5581 85.5043 21.0981 85.6363 21.6621C85.7563 21.0981 85.8883 20.5581 86.0323 20.0421C86.1763 19.5261 86.3323 19.0521 86.5003 18.6201L93.4663 1.0521C93.5503 0.8121 93.7003 0.6021 93.9163 0.422099C94.1443 0.242099 94.4203 0.1521 94.7443 0.1521H97.8223Z" fill="#263238"/>
<path d="M109.701 14.8221C109.701 14.1261 109.599 13.4841 109.395 12.8961C109.203 12.3081 108.915 11.7981 108.531 11.3661C108.147 10.9341 107.679 10.5981 107.127 10.3581C106.575 10.1181 105.939 9.9981 105.219 9.9981C103.743 9.9981 102.579 10.4241 101.727 11.2761C100.887 12.1281 100.353 13.3101 100.125 14.8221H109.701ZM112.599 23.3901C112.167 23.8941 111.669 24.3321 111.105 24.7041C110.541 25.0641 109.941 25.3581 109.305 25.5861C108.669 25.8141 108.009 25.9821 107.325 26.0901C106.653 26.1981 105.987 26.2521 105.327 26.2521C104.067 26.2521 102.897 26.0421 101.817 25.6221C100.749 25.1901 99.8191 24.5661 99.0271 23.7501C98.2471 22.9221 97.6351 21.9021 97.1911 20.6901C96.7591 19.4661 96.5431 18.0621 96.5431 16.4781C96.5431 15.2061 96.7411 14.0241 97.1371 12.9321C97.5331 11.8281 98.0971 10.8681 98.8291 10.0521C99.5731 9.2361 100.479 8.5941 101.547 8.1261C102.615 7.6581 103.815 7.4241 105.147 7.4241C106.263 7.4241 107.289 7.6101 108.225 7.9821C109.173 8.3421 109.989 8.8701 110.673 9.5661C111.357 10.2621 111.891 11.1201 112.275 12.1401C112.671 13.1601 112.869 14.3241 112.869 15.6321C112.869 16.1721 112.809 16.5381 112.689 16.7301C112.569 16.9101 112.347 17.0001 112.023 17.0001H100.035C100.071 18.0921 100.227 19.0461 100.503 19.8621C100.779 20.6661 101.157 21.3381 101.637 21.8781C102.129 22.4181 102.711 22.8201 103.383 23.0841C104.055 23.3481 104.805 23.4801 105.633 23.4801C106.413 23.4801 107.085 23.3901 107.649 23.2101C108.225 23.0301 108.717 22.8381 109.125 22.6341C109.545 22.4181 109.893 22.2201 110.169 22.0401C110.457 21.8601 110.709 21.7701 110.925 21.7701C111.213 21.7701 111.435 21.8781 111.591 22.0941L112.599 23.3901Z" fill="#263238"/>
<path d="M127.424 10.8621C127.328 11.0181 127.226 11.1321 127.118 11.2041C127.01 11.2641 126.872 11.2941 126.704 11.2941C126.512 11.2941 126.296 11.2281 126.056 11.0961C125.828 10.9641 125.546 10.8201 125.21 10.6641C124.886 10.5081 124.502 10.3641 124.058 10.2321C123.614 10.1001 123.086 10.0341 122.474 10.0341C121.97 10.0341 121.508 10.1001 121.088 10.2321C120.68 10.3521 120.332 10.5261 120.044 10.7541C119.756 10.9701 119.534 11.2341 119.378 11.5461C119.222 11.8461 119.144 12.1701 119.144 12.5181C119.144 12.9741 119.276 13.3521 119.54 13.6521C119.816 13.9521 120.17 14.2101 120.602 14.4261C121.046 14.6421 121.544 14.8401 122.096 15.0201C122.66 15.1881 123.23 15.3681 123.806 15.5601C124.394 15.7521 124.964 15.9741 125.516 16.2261C126.08 16.4661 126.578 16.7721 127.01 17.1441C127.454 17.5041 127.808 17.9421 128.072 18.4581C128.348 18.9741 128.486 19.6041 128.486 20.3481C128.486 21.2001 128.33 21.9921 128.018 22.7241C127.718 23.4441 127.268 24.0681 126.668 24.5961C126.08 25.1241 125.348 25.5381 124.472 25.8381C123.596 26.1381 122.594 26.2881 121.466 26.2881C120.206 26.2881 119.042 26.0781 117.974 25.6581C116.906 25.2381 116.012 24.7041 115.292 24.0561L116.12 22.7061C116.216 22.5381 116.336 22.4121 116.48 22.3281C116.624 22.2321 116.816 22.1841 117.056 22.1841C117.284 22.1841 117.518 22.2681 117.758 22.4361C117.998 22.6041 118.286 22.7901 118.622 22.9941C118.958 23.1861 119.366 23.3661 119.846 23.5341C120.326 23.6901 120.926 23.7681 121.646 23.7681C122.246 23.7681 122.768 23.6961 123.212 23.5521C123.656 23.3961 124.022 23.1921 124.31 22.9401C124.61 22.6761 124.832 22.3761 124.976 22.0401C125.12 21.7041 125.192 21.3501 125.192 20.9781C125.192 20.4981 125.054 20.1021 124.778 19.7901C124.514 19.4661 124.16 19.1901 123.716 18.9621C123.284 18.7341 122.786 18.5361 122.222 18.3681C121.658 18.2001 121.082 18.0201 120.494 17.8281C119.906 17.6361 119.33 17.4141 118.766 17.1621C118.202 16.9101 117.698 16.5921 117.254 16.2081C116.822 15.8241 116.468 15.3561 116.192 14.8041C115.928 14.2521 115.796 13.5801 115.796 12.7881C115.796 12.0801 115.94 11.4021 116.228 10.7541C116.528 10.1061 116.954 9.5361 117.506 9.0441C118.07 8.5521 118.76 8.1621 119.576 7.8741C120.404 7.5741 121.346 7.4241 122.402 7.4241C123.614 7.4241 124.706 7.6161 125.678 8.0001C126.662 8.3841 127.502 8.9121 128.198 9.5841L127.424 10.8621Z" fill="#263238"/>
<path d="M138.01 26.2881C136.534 26.2881 135.394 25.8741 134.59 25.0461C133.798 24.2181 133.402 23.0361 133.402 21.5001V10.5561H131.278C131.074 10.5561 130.9 10.4961 130.756 10.3761C130.624 10.2441 130.558 10.0521 130.558 9.8001V8.3781L133.528 7.9641L134.32 2.5101C134.368 2.3061 134.458 2.1501 134.59 2.0421C134.734 1.9221 134.914 1.8621 135.13 1.8621H136.912V8.0001H142.096V10.5561H136.912V21.2661C136.912 21.9861 137.086 22.5261 137.434 22.8861C137.794 23.2341 138.25 23.4081 138.802 23.4081C139.126 23.4081 139.402 23.3661 139.63 23.2821C139.87 23.1981 140.074 23.1081 140.242 23.0121C140.41 22.9041 140.554 22.8081 140.674 22.7241C140.794 22.6401 140.902 22.5981 140.998 22.5981C141.118 22.5981 141.208 22.6281 141.268 22.6881C141.34 22.7361 141.412 22.8201 141.484 22.9401L142.528 24.6321C141.952 25.1601 141.268 25.5681 140.476 25.8561C139.684 26.1441 138.862 26.2881 138.01 26.2881Z" fill="#263238"/>
</svg>
